<svg xmlns="http://www.w3.org/2000/svg" width="40" height="17">
  <g fill="none" fill-rule="evenodd">
    <path fill="#FEFEFE" d="M36.079 11.858h-4.903l.844-4.461h4.903zM21.699 9.163c0 1.757-1.425 3.182-3.182 3.182-1.758 0-3.182-1.425-3.182-3.182s1.424-3.182 3.182-3.182c1.757 0 3.182 1.425 3.182 3.182"/>
    <path fill="#8EC31F" d="M21.562 2.579l-.92 1.633c-.07.126-.105.112-.081-.03l.275-1.573c.025-.143.162-.258.308-.258h.283c.145-.001.206.102.135.228zm-2.052 9.463l-.135.046c-.278.082-.57.128-.874.128-.471.001-.915-.108-1.314-.298-.271-.128-.52-.295-.74-.494-.198-.179-.373-.381-.52-.605-.04-.062-.08-.126-.116-.191-.242-.438-.38-.941-.38-1.476-.002-.912.398-1.73 1.031-2.293.475-.422 1.078-.701 1.745-.764.094-.01.19-.016.287-.016.644 0 1.241.2 1.735.539.05.034.095.075.143.113l-1.613 1.616c-.082-.026-.171-.041-.263-.041-.09 0-.178.015-.262.041l-.962-.96c-.149-.149-.39-.148-.54 0-.147.15-.147.39.001.539l.963.96c-.027.083-.042.171-.042.263 0 .464.38.843.844.843.466 0 .844-.38.843-.845 0-.092-.015-.18-.043-.262l1.614-1.617c.147.19.277.393.378.614.175.386.275.812.276 1.263.001 1.338-.86 2.477-2.056 2.897zm-4.732-5.658c-.257.345-.467.725-.62 1.134-.021.054-.038.085-.062.113-.036.042-.08.048-.106.048h-.05c-.145 0-.243-.116-.217-.258l.186-1.066c.025-.142.164-.258.307-.258h.488c.142 0 .222-.011.23.064.008.077-.083.124-.156.223zm-.672 4.42c-.031.04-.105.038-.142.038h-.578c-.146 0-.242-.115-.218-.256l.187-1.066c.026-.143.163-.259.309-.26.088 0 .137.027.169.068.03.038.035.079.04.15.03.41.111.804.24 1.177.022.063.028.103-.007.149zm-2.402-3.38c-.025.141-.164.258-.308.258h-.257c-.145 0-.243-.116-.218-.258l.187-1.066c.025-.141.164-.258.307-.258h.258c.145 0 .241.116.217.257l-.186 1.066zm-.554 3.164c-.026.141-.164.258-.308.258h-.258c-.144 0-.24-.116-.216-.257l.186-1.066c.025-.142.163-.259.308-.259h.256c.145 0 .243.116.218.258l-.186 1.066zm10.692-4.655c-.101-.103-.125-.29-.055-.417L24.312.994c.07-.126.01-.229-.133-.229L19.4.771c-.145 0-.283.116-.307.258l-.551 3.144-.058.335-.045.002h-.39l-3.556.005c-.144 0-.242-.116-.217-.257l.169-.969c.026-.143.16-.287.3-.322l3.174-.787c.14-.034.273-.179.3-.321l.19-1.093c.025-.142-.069-.23-.21-.195L9.236 2.795c-.14.034-.274.179-.3.321l-.19 1.093c-.025.142.069.23.21.195l3.172-.787c.139-.034.234.053.21.195l-.08.448c-.025.141-.163.258-.307.258l-2.999.003c-.142 0-.282.117-.306.26l-.187 1.065c-.026.141.073.257.217.257h.458c.145 0 .242.116.218.257l-.187 1.066c-.024.142-.163.258-.306.259h-.46c-.144 0-.283.117-.308.259l-.187 1.065c-.025.143.073.258.216.258h.46c.145 0 .242.116.217.258l-.185 1.066c-.025.14-.165.258-.309.258h-.46c-.143 0-.282.117-.306.259l-.187 1.066c-.026.14.074.257.218.257l2.997-.003c.144 0 .243.115.217.258l-.086.49c-.024.141-.162.258-.307.258l-2.999.004c-.145 0-.283.116-.308.258l-.187 1.065c-.023.142.073.258.218.258l8.279-.01c.144 0 .3-.111.346-.248l.37-1.085c.047-.137-.034-.248-.178-.248l-2.997.003c-.144 0-.243-.116-.217-.258l.085-.49c.025-.142.163-.258.307-.258l1.86-.002c.072 0 .177.008.254.039.082.035.118.084.184.143.395.353.852.637 1.352.84.05.02.088.047.108.081.02.033.03.049.012.15l-.206 1.185c-.026.142.072.259.217.258l1.494-.001c.144 0 .282-.117.307-.26l.144-.824c.019-.103.056-.262.186-.276 2.317-.261 4.12-2.23 4.118-4.615-.001-1.177-.446-2.25-1.173-3.068-.075-.09-.123-.142-.123-.142zm14.745 2.12H32.01l.101-.572h4.576l-.101.572zm-.64 3.628c-.01.058-.04.09-.07.09H31.41c-.03 0-.05-.025-.044-.054l.595-3.378h4.575l-.589 3.342zm2.383-6.595h-7.045c-.11 0-.203.078-.223.186l-1.713 9.72c-.025.139.082.265.222.265h1.347c.11 0 .204-.078.223-.186l.048-.273c.019-.108.113-.187.222-.187h3.417c.14 0 .247.127.223.266l-.02.115c-.025.139.082.265.222.265h1.364c.11 0 .203-.078.222-.186l1.714-9.72c.024-.139-.082-.265-.223-.265zm-8.615 5.17c-.423-.554-.912-1.108-1.474-1.674-.051-.053-.075-.127-.063-.199l.011-.062c.02-.108.114-.187.223-.187h1.492c.11 0 .204-.079.223-.187l.23-1.304c.025-.138-.082-.265-.223-.265h-1.332c-.141 0-.248-.127-.223-.266l.19-1.076c.024-.138-.082-.265-.223-.265H27.2c-.11 0-.204.079-.223.187l-.218 1.233c-.019.108-.113.187-.222.187H24.58c-.11 0-.204.078-.223.186l-.23 1.304c-.024.139.082.266.222.266h1.34c.177 0 .284.194.191.346-.262.43-.555.86-.877 1.277-.63.796-1.184 1.407-1.69 1.835-.075.063-.102.165-.067.255l.455 1.164c.057.147.243.191.361.087.368-.323.798-.776 1.29-1.355.149-.175.435-.04.395.186l-.528 2.996c-.025.139.082.266.222.266h1.346c.11 0 .204-.079.223-.187l.642-3.64c.036-.205.306-.257.415-.08l.236.392c.078.132.262.15.364.035l1.035-1.168c.072-.081.078-.202.012-.288zm3.538-.386h1.539c.042 0 .086-.037.093-.08l.122-.69c.008-.042-.034-.08-.119-.08h-1.485c-.042 0-.086.038-.094.08l-.121.69c-.008.043.023.08.065.08zm6.185-8.528h-3.703c-.172 0-.282-.185-.198-.336l.003-.005c.069-.124.008-.28-.126-.324L34.262.29c-.101-.034-.211.007-.266.099-.316.533-.694 1.094-1.16 1.682-.131.182-.263.364-.408.53l.176-.994c.024-.138-.082-.265-.223-.265h-3.148c-.171 0-.28-.183-.199-.334l.04-.075c.068-.123.007-.278-.126-.323L27.802.226c-.103-.035-.216.01-.269.105-.33.596-.738 1.22-1.246 1.872-.46.658-.96 1.234-1.515 1.754-.097.091-.097.245.002.334l.943.85c.089.08.226.08.31-.005.567-.566 1.123-1.228 1.683-1.988l.09-.133h.4c.098 0 .185.062.216.154.178.523.337 1.046.482 1.579.038.139.193.208.322.142l1.41-.736c.104-.054.15-.178.106-.286-.073-.177-.15-.354-.232-.53-.069-.151.038-.323.204-.323h.835c.204 0 .303.249.156.39-.081.078-.164.154-.249.228-.101.088-.101.244-.003.335l.936.857c.089.081.225.08.31-.004.486-.481.976-1.06 1.466-1.715.043-.057.11-.091.18-.091h.607c.096 0 .182.06.215.149.166.46.304.928.43 1.398.036.14.193.21.322.143l1.425-.748c.105-.055.151-.181.104-.29-.048-.11-.1-.22-.153-.33-.072-.149.039-.322.204-.322h1.73c.11 0 .203-.079.222-.187l.215-1.221c.025-.138-.082-.265-.222-.265z"/>
    <path fill="#11B8D7" d="M2.15 3.184c0-.567.2-1.05.602-1.45.4-.398.889-.597 1.463-.597.55 0 1.024.196 1.419.589.395.392.592.878.592 1.458 0 .556-.194 1.033-.583 1.431-.39.399-.865.598-1.428.598-.574 0-1.062-.2-1.463-.598-.401-.398-.602-.875-.602-1.431M1.147 15.018c-.77 0-1.257-.585-1.125-1.351l1.1-6.41c.15-.878 1.044-1.638 1.926-1.638h.413c1.426.036 1.979 1.487 1.515 2.614l-1.98 5.434c-.278.766-1.08 1.351-1.85 1.351"/>
    <path fill="#8EC31F" d="M17.72 11.306l-.068.22h-.828c.034-.083.085-.162.153-.236.067-.074.186-.173.356-.296.137-.099.223-.166.258-.202.047-.048.078-.097.093-.144.016-.053.014-.094-.006-.122-.02-.028-.054-.043-.104-.043-.05 0-.093.015-.132.045-.038.03-.07.08-.095.148l-.228-.023c.053-.13.126-.224.217-.28.091-.057.193-.085.304-.085.121 0 .207.032.256.098.05.066.06.147.03.245-.017.055-.043.108-.078.159-.036.05-.083.102-.143.157-.04.037-.108.09-.203.158-.096.068-.157.113-.183.136-.027.022-.05.044-.069.065h.47zm.695-.236l.129-.422-.412.422h.283zm-.14.456l.077-.248h-.505l.063-.207.775-.783h.198l-.24.782h.154l-.063.208h-.154l-.076.248h-.228zm.548 0l.377-1.233h.249l-.148.485h.488l.148-.485h.249l-.377 1.233h-.249l.165-.539h-.488l-.165.539z"/>
  </g>
</svg>
